<?xml version="1.0" encoding="utf-8"?>
<!-- Generator: Adobe Illustrator 26.2.1, SVG Export Plug-In . SVG Version: 6.00 Build 0)  -->
<svg version="1.1" id="Layer_1" xmlns="http://www.w3.org/2000/svg" xmlns:xlink="http://www.w3.org/1999/xlink" x="0px" y="0px"
	 viewBox="0 0 735 852" style="enable-background:new 0 0 735 852;" xml:space="preserve">
<style type="text/css">
	.st0{fill:#568AC5;}
	.st1{opacity:0.25;fill:url(#SVGID_1_);}
	.st2{fill:#C93832;}
	.st3{fill:#982C29;}
	.st4{fill:#FFFFFF;}
	.st5{fill:#4774A5;}
	.st6{opacity:0.9;fill:#FFFFFF;}
	.st7{fill:none;}
</style>
<path class="st0" d="M734.9,637.4L367.5,849.5L0.1,637.4V213.1L367.5,1l367.4,212.1V637.4z"/>
<linearGradient id="SVGID_1_" gradientUnits="userSpaceOnUse" x1="363.8889" y1="-128.7892" x2="365.1874" y2="334.7361">
	<stop  offset="0" style="stop-color:#FFFFFF;stop-opacity:0.83"/>
	<stop  offset="1" style="stop-color:#FFFFFF;stop-opacity:0"/>
</linearGradient>
<path class="st1" d="M364.9,334c139.8,0,258.4-67.8,299.6-161.6L367.5,1L65,171.8C106,266,224.7,334,364.9,334z"/>
<polygon class="st2" points="350.6,553.9 711.1,451.7 705.6,637.8 693,644.2 693.8,646.5 366.8,823.4 27.2,624.6 27.2,416.5 "/>
<path class="st3" d="M705.6,196.2L427.8,35.8L367.5,1l-60.3,34.8L29.4,196.2L0.1,213.1v424.3l29.3,16.9l281.3,162.4l56.9,32.8
	l56.9-32.8l281.3-162.4l29.3-16.9V213.1L705.6,196.2z M367.5,35.8L367.5,35.8L705.6,231v198.6l-347,91.5l-8.6,32.2L29.4,392.5V231
	L367.5,35.8z M367.5,816.7L29.4,621.5V426l17.2,8.6L308,565.8l60.4,30.2l-1.9-34.4l-15.2-7.6l60.4-15.9l145.6-38.4l148.3-39.1v160.9
	L367.5,816.7z"/>
<path class="st4" d="M384.1,254.7L384.1,254.7L384.1,254.7c6.4-0.3,14.4-2.6,16.3-12.1c0.9-4.2-1.7-9.1-3.3-10.5
	c-1.6-1.4-3.8-2-6.7-1.8c-2.9,0.2-6.4,2-9.7,5c-4.4,4-4.3,9.9-2.8,13.7C379.2,252.5,381.5,254.6,384.1,254.7z"/>
<path class="st4" d="M206,365.2c6.9-26.5-10.3-45.8-25.5-65.2c-0.1-0.1-0.2-0.2-0.2-0.4c-0.6-2.5-17.1-17.5-21.7-23.1l-0.2-0.2
	c-2.2-1.6-4.5-9.6-5.6-14c-0.5-1.8-0.5-3.8-0.1-5.6c4-20.1,6.2-35,33.3-30.5c19.5,3.2,9.4,31.4,19.8,34.2l0.2,0
	c6.3,0.6,18.6-14.4,20.4-19.4c7-19.6-33.4-31.6-45.7-30.8c-24.7,1.5-40.9,14.8-50.8,36.6c-18.2,40.3,15.8,67.1,36.4,94.7
	c15.6,20.9,14.9,39.5-4.3,57.4c-21,19.7-45.4-7.4-48.2-26.5c-2.5-17.5-2.3-29.7-17.1-7.5c-13.6,20.4,0.5,47.3,27.2,48.5
	C158.9,414.3,195.4,406.3,206,365.2z"/>
<polygon class="st5" points="367.5,1 0.1,213.1 0.1,378 29.4,392.5 29.4,231 367.5,35.8 367.5,35.8 705.6,231 705.6,429.6 
	734.9,421.8 734.9,213.1 "/>
<path class="st6" d="M60.6,516c57.5-1.7,119.3,34,148.1,82.7c0.5,0.8,1.7,0.6,1.9-0.2c6-20.8,16.7-37.9,30.7-52
	c7.4-7.5,15.7-14.1,24.8-20c57.1-37.1,143.1-44.9,208.2-50.7c32.4-2.9,66.6-8.2,93.7-27.4c18.9-13.3,36.4-32.1,52-48.4
	c11.2-11.8,18.6-21,28.2-33.3c5.1-6.5,7.7-9.5,12.6-16.9c3.9-5.9,7.5-12.7,9.9-19.3c0.5-1.5,2.5-6.7,2.8-12.4v-0.2
	c0-0.6-0.1-1.2-0.1-1.8c-1.8-27-40.5,15.5-45.6,20.6c-8.2,8.1-19.4,16.7-30,22.9c-0.8,0.5-1.8-0.3-1.6-1.2c1.1-4,2.4-9.1,3.9-15.2
	c2-8,3.3-13.4,3.9-15.6c0.6-2.1,2.1-8.2,4.7-18.3c2.5-10,5.7-21.3,9.5-33.4c4.6-14.4,9.5-23.6,14.5-27.4l0.2-0.2
	c0.8-0.6,0.3-1.9-0.7-1.9l-11.1,0.7c-4.5,0.3-9.3,1.2-14.4,2.7c-1.7,0.5-3.4,1.6-4.9,3.2c-1.4,1.4-2.6,2.6-3.4,3.6
	c-0.9,1-1.9,2.8-2.9,5.4c-1,2.4-1.7,4.4-2.2,5.8c-0.4,1.4-1.2,3.9-2.3,7.6c-1.1,3.7-1.9,6.5-2.5,8.5c-4.3,13.9-11.1,28.2-19.9,42.4
	c-8.7,14-16.2,21.2-22.1,21.6l-0.2,0c-2.4,0-3.8-2.8-4.2-8.4c-0.8-12,2-27.2,8.3-45.2c6.3-18,12.8-30.8,19.5-38
	c1.2-1.5,1.7-2.7,1.7-3.7c-0.1-1.3-0.9-2.1-2.3-2.1h0c-9.5,0.6-17,2.4-22.3,5.3c-5.4,2.9-10.4,9-15,18.1
	c-3.8,7.7-7.3,17.7-10.2,29.8l-0.1,0.2c-0.5,1-1.1,2.2-1.8,3.7c-2,4.3-4.5,9.5-7.4,15.2c-2.9,5.8-5.6,10.7-8,14.5
	c-2.4,3.8-5.6,7.6-9.5,11.2c-4.6,4.4-7.3,5.4-8.7,5.5l-0.3,0c-1.5,0-3.4-0.6-3.8-5.6c-0.5-7.1,2.5-21.7,8.8-43.3
	c2.9-10.1,4.7-16.6,5.4-20c0.7-3.4,0.9-6.8,0.7-10.1c-0.7-10.5-6.4-15.6-17.1-14.9c-13.4,0.8-26.5,7.8-38.9,20.6
	c-0.7,0.7-2,0.1-1.8-0.9c0.5-3.3,0.8-5.7,0.7-7.2c-0.2-2.6-1.3-4.7-3.5-6.1c-2.1-1.4-6.2-1.8-12.7-1.4l-11.1,0.7
	c-0.8,0.1-1.2,0.9-0.8,1.6l0,0c0.5,0.8,0.8,2,0.9,3.8c0.5,7.6-1.8,21.4-6.7,41c-0.4,0.7-0.9,1.7-1.3,2.4c-0.6,0.6-1.5,2.2-3.8,6.8
	c-2.1,4.4-4.6,9.5-7.5,15.4c-2.9,5.9-5.5,10.8-7.9,14.6c-2.3,3.8-5.5,7.5-9.3,11c-4.6,4.3-7.3,5.3-8.7,5.3l-0.3,0
	c-0.9,0-3.7,0-4.1-7c-0.3-5.4,0.6-12.6,2.9-21.4c2.3-8.9,4.5-16.1,6.4-21.3c1.9-5.1,4.7-12.5,9-23.5c3.9-10.2,7.2-16.6,9.8-18.9
	l0.1,0c0.7-0.7,0.2-1.8-0.8-1.8l-15.9,0.8c-8,0.5-14.8,6.9-20.4,19.1c-5,11.2-8.9,22.1-11.7,32.5c-0.1,0.2-0.1,0.3-0.2,0.5
	c-13.5,33.6-25.4,51-35.5,51.7l-0.3,0c-0.8,0-3.2,0-3.6-5.9c-0.3-4.7,0.4-11.1,2.2-19.1c0.7-3.2,1.6-7.2,2.9-11.9
	c1.3-4.7,2.3-8.4,3.1-11.1c0.8-2.7,1.8-6.2,3-10.5c1.2-4.3,2.3-8.1,3.4-11.4c1.1-3.4,1.5-7.2,1.2-11.1c-0.7-10.2-6.4-15-17.1-14.3
	c-5.2,0.3-10.7,1.9-16.2,4.5c-2.7,1.3-6,3.4-9.6,6.1c-1,0.7-2.2-0.4-1.5-1.4c17.2-24.8,29.8-47,37.3-66.1c4.1-10.7,6-19.4,5.6-25.8
	c-0.6-9.6-5.7-14.2-15.1-13.6c-9,0.6-17.3,5.1-24.8,13.4c-7.4,8.2-13.8,18.3-19.2,30.1c-5.3,11.7-10.7,26.2-16,43.1
	c-5.3,16.9-11.5,40.3-18.5,69.6c-7,29.3-12.5,51-16.4,64.4c-0.2,0.7,0.4,1.4,1.1,1.3l26.4-1.7l0.2-0.8c1.2-6,2.4-11.3,3.6-15.8
	c1.2-4.5,2.6-10.6,4-17.8c1.5-7.2,3-13.4,4.5-18.4c1.5-5,3.6-11.1,6.2-18c2.6-6.8,6-13,10.2-18.3c4.1-5.3,8.6-9.5,13.4-12.4
	c5.8-3.6,8.6-4.4,10-4.5c0.1,0,0.3,0,0.4,0c1.5,0,3.4,0.5,3.6,4.5c0.2,2.5-0.8,7.4-2.7,14.5c-9.3,28.6-13.5,50.7-12.5,65.8
	c0.9,13.6,6.9,20.2,18,19.5c12.6-0.8,26.2-14.6,41.3-42c0.5-1,2-0.6,2,0.5c0,3.1,0,6.1,0.2,9c1,14.9,6.4,22.4,16.1,22.4
	c0.4,0,0.8,0,1.2,0c5.9-0.4,12.2-3.9,18.9-10.4c6.5-6.4,12.3-13.8,17.2-22.1c0.8-1.3,1.6-2.7,2.4-4.1c-4,14.7-5.9,23.2-5.8,25.5
	l0.1,1l27.5-1.7l0.2-0.8c0.2-0.8,1.1-5.9,1.9-10.1c1.1-6,2.2-11.7,3.4-17.1c1.1-5.3,2.8-12,4.8-20c2-7.9,4.4-15,6.9-21.1
	c2.6-6.1,5.6-12.3,8.9-18.3c3.2-5.9,7-10.6,11.2-13.9c4.1-3.3,8.4-5.1,12.8-5.4c4.1-0.3,6,1.2,6.3,4.6c0.1,1.8-0.1,3.5-0.7,5.2
	c-10.8,38.2-15.8,63.8-15,76.3c0.8,13,6.9,19.3,17.9,18.6c5.9-0.4,12.2-3.9,18.9-10.4c6.5-6.4,12.3-13.8,17.2-22.1
	c1.5-2.6,3.2-5.5,4.8-8.5c0.5-1,2-0.6,2,0.5c0,1.5,0,3,0.1,4.3c0.4,8.1,2.3,14.3,5.5,18.4c3.3,4.2,7.5,6.2,12.6,5.9
	c4.8-0.3,8.9-1.2,12.4-2.6c3.5-1.4,8.1-5.1,14-11.3c3.8-4,8-9.2,12.5-15.7c0.7-1,2.2-0.3,1.9,0.9l-7.5,27.2
	c-0.1,0.4-0.4,0.6-0.7,0.7c-15,4-37.2,4.7-50.1,14.2l-0.2,0.1c-2.7,1.1-6.3,5.1-8.6,8.8c-2.3,3.7-5.1,8.6-4.8,13
	c0.5,7.4,2.7,13.6,10.1,17.3c5.7,2.9,10.5,3.5,17.9,3.5c1.2,0,2.5,0,3.8-0.1c9-0.6,17.8-3.5,26.2-8.8c8.4-5.3,15.4-12.2,20.8-20.5
	c4-6.2,7.5-13.9,10.5-23.1c0.1-0.3,0.3-0.5,0.6-0.7c1-0.4,1.9-0.8,2.6-1.1c17.5-8.5,31.1-21.8,47.2-32.6c10.4-7,3.7,9.5,2.4,11.6
	c-8.1,12.6-19.9,22.5-29.1,34.3c-24.2,31.2-57.6,57-97.5,64.1c-115.1,20.4-225.8,7.9-334,26.7c-14,2.4-28,5.4-42,9
	c-27.6,7.2-55,16.9-82.3,30.3C59.1,514.6,59.5,516.1,60.6,516z M263,291.3c-0.7,1-2.2,0.3-1.9-0.9c6.7-22.9,13.7-43.8,20.9-62.1
	c10.4-26.5,17.3-32.4,21.2-32.6l0.2,0c0.5,0,2.2,0,2.5,4.4c0.2,3.6-1.7,11.5-5.8,23.7C293.5,241.4,281,264.1,263,291.3z
	 M562.9,382.1c-7.4,20.8-17.1,31.7-28.9,32.4c-3.4,0.2-6.2-0.6-8.5-2.5c-2.6-2.1-5.6-4.9-5.8-8c-0.3-4.3,0-7.8,1-10
	c0.1-0.1,0.1-0.2,0.2-0.3c5.8-6.2,17.2-8,24.7-9.8c5.3-1.3,10.8-2.2,16.1-3.3C562.5,380.6,563.2,381.4,562.9,382.1z"/>
<path class="st4" d="M461.9,676c0-17-10.2-26.8-30.2-34.4c-15-5.7-21.9-9.9-21.9-19.3c0-8.5,6.9-15.5,19.3-15.5
	c10.7,0,19,3.8,23.6,6.6l5.2-15.1c-6.4-3.8-16.7-7.1-28.3-7.1c-24.8,0-39.7,15.1-39.7,33.4c0,13.7,9.8,25,30.5,32.3
	c15.5,5.7,21.4,11.1,21.4,21c0,9.4-7.1,17-22.4,17c-10.5,0-21.4-4.2-27.6-8.2l-5.2,15.8c8.1,4.7,19.8,7.8,32.4,7.8
	C446.2,710.1,461.9,696,461.9,676z"/>
<path class="st4" d="M327.9,578.3c-5.5,0.3-10.3,1.1-15.1,3c-0.1,0-0.1,0-0.2,0.1l-5.8,2.8c0,0-0.1,0-0.1,0.1
	c-16.9,9.7-26.5,29.4-26.5,52.5c0,33,20.3,55.1,54.3,55.1c16.5,0,28.1-3.2,35.3-6.2c0.8-0.3,1.3-1.2,1.1-2.1l-2.6-10.7
	c-0.3-1.1-1.4-1.7-2.4-1.3c-7.1,2.8-15.5,4.9-28.7,4.9c-19.6,0-36.6-10.5-37.8-36c-0.1-1,0.8-1.9,1.8-1.9h74.2
	c0.9,0,1.7-0.7,1.8-1.6c0.2-2,0.5-4.5,0.5-7.7c0-9.9-2.3-20.3-8.9-30.5c-0.2-0.3-0.4-0.5-0.7-0.6c-3.7-2-29.8-15.5-36.6-19.1
	C330.4,578.5,329.2,578.3,327.9,578.3z M357.1,624.4h-55.4c-1.1,0-1.9-1-1.8-2.1c1.9-13.1,7.9-29.3,25.9-30.2c1-0.1,2,0.1,2.9,0.5
	c20.3,7.9,33.9,18.9,30,30.6C358.5,623.9,357.8,624.4,357.1,624.4z"/>
<path class="st4" d="M526.4,718.5c-1.7-1.5-3-1-4.2-0.8c-1.1,0.2-3.7,0.5-3.8,0.7c-0.2,0.6,0,0-0.2,0.7l0,0
	c-0.2-0.3-0.4-0.6-0.6-0.8l0,0l0,0c-0.1,0-0.2,0-0.3,0l-0.3,0c-0.5,0-0.6,0-1.1,0.1c-1,0.2-1.7,0.2-2.7,0.2c-0.4,0-1,0-1.4,0
	c-0.2,0.2-0.4,0.6-0.5,0.9l-0.1,0l-0.2-1l-0.2,0c-0.6,0-1,0-1.6,0.1l-0.1,0c0.2,0.8,0.4,1.6,0.5,2.6l1.5,8.6l2.1-0.4l-1.3-7.1
	c-0.1-0.4-0.1-0.7,0-1.1c0.2-1.1,1-1.8,2.4-2c1.7-0.3,2.9,1.6,3.2,3.5l1,5.6l2-1l-0.9-5.2c-0.1-0.4-0.1-0.8,0-1.1
	c0.2-1.1,0.8-1.9,2-2.1c1.3-0.2,1.9-0.4,3,0.7c2.3,2.3,0,5.6,0,5.6l2.1-1.1C526.6,724.2,529.6,722.1,526.4,718.5z"/>
<path class="st4" d="M286.1,702.2c-8.2,8.2-16.8,5.4-27-4.5l-44.2-43.2l21.1-21.1l-11.3-11.1l-21.1,21.1l-23.5-23l-10.5,18.2
	l19.6,19.2l-12.6,12.6l11.3,11.1l12.6-12.6l44.7,43.7c9.6,9.4,18.4,15.1,27,15.2c7.6,0.5,15.3-2.9,22.2-9.8c5.7-5.7,9.4-11,11-15
	l-11.8-10.3C292.2,695,289.9,698.4,286.1,702.2z"/>
<path class="st4" d="M461.9,601.3V617h17.9v62.2c0,13.4,2.1,23.6,8.1,29.7c5,5.7,12.9,8.7,22.6,8.7c8.1,0,14.5-1.2,18.6-2.8l-1-15.5
	c-2.6,0.7-6.7,1.4-12.1,1.4c-11.7,0-15.7-8-15.7-22.1V617h30v-15.8h-30v-32.7l-7.4,2l-13,4.4v26.3H461.9z"/>
<path class="st4" d="M546.9,570.1c6.4-5.2,16.7-11.5,29.3-11.5c20.6,0,27.3,12.8,27.3,26.6c-0.2,20.6-16.1,38.2-51.3,71.3
	l-14.6,14.1v11.3l63.5,0l23.8-13.7l-5.5-11.2l-17.4,9.6h-38.3v-0.4l11-10.1c29-27.7,47.5-48,47.5-73.2c0-19.5-12.5-39.7-42.2-39.7
	c-5.4,0-10.5,0.7-15.3,1.9l-9.6,3.3c-5.3,2.3-10.1,5.3-14.1,8.7L546.9,570.1z"/>
<path class="st4" d="M365.5,797.3l4.5,4.5c1,1,1.9,1.9,2.7,2.9l0.1,0c-0.4-1.2-0.7-2.5-1-3.8l-1.4-6.3l1.6-0.9l4.7,4.3
	c1.1,1,2.1,2,2.9,2.9l0.1,0c-0.4-1.2-0.8-2.4-1.2-3.9l-1.6-6.1l1.9-1.1l2.7,12.4l-1.7,1l-4.5-4.1c-1-1-2-1.8-2.9-2.9l0,0
	c0.5,1.4,0.8,2.7,1.1,4l1.2,5.9l-1.7,1l-9.2-8.6L365.5,797.3z"/>
<path class="st4" d="M381.7,787.9l4.5,4.5c1,1,1.9,1.9,2.7,2.9l0.1,0c-0.4-1.2-0.7-2.5-1-3.8l-1.4-6.3l1.6-0.9l4.7,4.3
	c1.1,1,2.1,2,2.9,2.9l0.1,0c-0.4-1.2-0.8-2.4-1.2-3.9l-1.6-6.1l1.9-1.1l2.7,12.4l-1.7,1l-4.5-4.1c-1-1-2-1.8-2.9-2.9l0,0
	c0.5,1.4,0.8,2.7,1.1,4l1.2,5.9l-1.7,1l-9.2-8.6L381.7,787.9z"/>
<path class="st4" d="M397.9,778.5l4.5,4.5c1,1,1.9,1.9,2.7,2.9l0.1,0c-0.4-1.2-0.7-2.5-1-3.8l-1.4-6.3l1.6-0.9l4.7,4.3
	c1.1,1,2.1,2,2.9,2.9l0.1,0c-0.4-1.2-0.8-2.4-1.2-3.9l-1.6-6.1l1.9-1.1l2.7,12.4l-1.7,1l-4.5-4.1c-1-1-2-1.8-2.9-2.9l0,0
	c0.5,1.4,0.8,2.7,1.1,4l1.2,5.9l-1.7,1l-9.2-8.6L397.9,778.5z"/>
<path class="st4" d="M417.1,779.7c-0.5-0.8-0.3-1.7,0.5-2.1c0.8-0.4,1.6-0.2,2.1,0.6c0.5,0.8,0.3,1.7-0.5,2.1
	C418.4,780.8,417.6,780.5,417.1,779.7z"/>
<path class="st4" d="M418.5,770.8c-0.7-1.2-1.4-2.3-2-3.2l1.7-1l1.3,2l0.1,0c-0.3-1.7,0.3-3.2,1.6-4c0.2-0.1,0.4-0.2,0.6-0.2l1,1.8
	c-0.2,0.1-0.4,0.2-0.7,0.3c-1.3,0.8-1.7,2.3-1.1,3.9c0.1,0.3,0.2,0.6,0.4,0.9l3.2,5.6l-1.9,1.1L418.5,770.8z"/>
<path class="st4" d="M428.4,772.1c0.8,0,2-0.2,2.9-0.7c1.4-0.8,1.6-1.9,1.1-2.7c-0.5-0.9-1.4-1.1-3.1-0.8c-2.3,0.4-3.8-0.1-4.5-1.4
	c-1-1.7-0.4-3.9,1.8-5.2c1.1-0.6,2.2-0.9,2.9-0.8l0.3,1.7c-0.6,0-1.5,0.1-2.5,0.6c-1.1,0.7-1.4,1.7-0.9,2.4c0.5,0.9,1.4,0.9,3,0.6
	c2.2-0.4,3.7,0,4.6,1.6c1.1,1.8,0.4,4-2.1,5.4c-1.1,0.7-2.4,1-3.4,1L428.4,772.1z"/>
<path class="st4" d="M432.8,754.1l1.7,3l2.7-1.6l0.8,1.4l-2.7,1.6l3.3,5.6c0.8,1.3,1.6,1.8,2.6,1.2c0.5-0.3,0.8-0.6,1-0.8l0.9,1.4
	c-0.3,0.4-0.8,0.8-1.5,1.2c-0.9,0.5-1.8,0.6-2.5,0.4c-0.9-0.2-1.6-1.1-2.3-2.3l-3.3-5.7l-1.6,0.9l-0.8-1.4l1.6-0.9l-1.5-2.5
	L432.8,754.1z"/>
<path class="st4" d="M452.6,756.8c0.6,1.1,1.2,2,1.7,2.8l-1.7,1l-1.1-1.6l0,0c0,1.1-0.5,2.9-2.3,4c-1.6,1-4.1,1.2-6.3-2.5l-3.6-6.1
	l1.9-1.1l3.4,5.8c1.2,2,2.5,3,4.3,2c1.3-0.7,1.6-2.1,1.5-3.2c-0.1-0.3-0.2-0.7-0.4-1.1l-3.7-6.4l1.9-1.1L452.6,756.8z"/>
<path class="st4" d="M457.5,737.2l7.4,12.6c0.5,0.9,1.2,2,1.7,2.6l-1.7,1l-1.1-1.8l0,0c0.1,1.5-0.7,3.1-2.4,4.1
	c-2.5,1.5-5.7,0.5-7.6-2.7c-2-3.5-1.1-6.9,1.4-8.3c1.6-0.9,3.1-0.8,4.1-0.2l0,0l-3.6-6.2L457.5,737.2z M460.9,747.5
	c-0.1-0.2-0.3-0.6-0.6-0.8c-1-1-2.6-1.4-4-0.6c-2,1.1-2.1,3.6-0.8,5.9c1.2,2.1,3.3,3.3,5.3,2.1c1.3-0.7,2-2.3,1.5-3.9
	c-0.1-0.3-0.2-0.6-0.4-0.9L460.9,747.5z"/>
<path class="st4" d="M463.9,736.1c0.4,0.6,0.2,1.4-0.5,1.9c-0.7,0.4-1.4,0.1-1.8-0.5c-0.4-0.7-0.2-1.5,0.5-1.9
	C462.7,735.2,463.5,735.4,463.9,736.1z M469.6,750.7l-6.1-10.5l1.9-1.1l6.1,10.5L469.6,750.7z"/>
<path class="st4" d="M481,736.9c2.3,3.9,0.6,7.1-2,8.6c-2.8,1.6-6.2,0.8-8.1-2.5c-2-3.5-0.9-6.9,2-8.6
	C475.8,732.7,479.1,733.7,481,736.9z M472.8,741.9c1.3,2.3,3.7,3.2,5.5,2.2c1.8-1.1,2.2-3.6,0.8-5.9c-1-1.8-3.2-3.5-5.5-2.2
	C471.4,737.3,471.6,739.9,472.8,741.9z"/>
<path class="st4" d="M484.9,740.3c-0.5-0.8-0.3-1.7,0.5-2.1c0.8-0.4,1.6-0.2,2.1,0.6c0.5,0.8,0.3,1.7-0.5,2.1
	C486.2,741.4,485.3,741.1,484.9,740.3z"/>
<path class="st4" d="M497.7,733.8c-0.3,0.5-1.2,1.5-2.7,2.4c-3.2,1.8-6.4,0.9-8.3-2.3c-1.9-3.2-1-6.8,2.4-8.8c1.1-0.7,2.3-1,2.9-1
	l0.4,1.7c-0.6,0-1.5,0.2-2.5,0.8c-2.4,1.4-2.7,3.9-1.4,6.1c1.4,2.4,3.8,3,5.9,1.8c1.1-0.6,1.6-1.3,2-1.9L497.7,733.8z"/>
<path class="st4" d="M508.2,725.4c1.1,4.3-1.4,7-4.2,7.7c-3.2,0.8-6.2-0.9-7.2-4.6c-1-3.9,1-6.9,4.2-7.7
	C504.4,719.9,507.3,721.8,508.2,725.4z M498.9,727.9c0.7,2.6,2.6,4.1,4.7,3.6c2-0.5,3.1-2.8,2.4-5.5c-0.5-2-2.2-4.2-4.7-3.6
	C498.8,723,498.4,725.7,498.9,727.9z"/>
<polygon class="st7" points="350,553.4 358.6,521.1 705.6,429.6 705.6,231 367.5,35.8 367.5,35.8 29.4,231 29.4,392.5 "/>
</svg>
